<?xml version="1.0" encoding="UTF-8"?>
<!DOCTYPE svg PUBLIC "-//W3C//DTD SVG 1.1//EN" "http://www.w3.org/Graphics/SVG/1.1/DTD/svg11.dtd">
<!-- Creator: CorelDRAW 2018 (64-Bit) -->
<svg xmlns="http://www.w3.org/2000/svg" xml:space="preserve" width="63.7834mm" height="56.849mm" version="1.1" style="shape-rendering:geometricPrecision; text-rendering:geometricPrecision; image-rendering:optimizeQuality; fill-rule:evenodd; clip-rule:evenodd"
viewBox="0 0 4248.84 3786.91"
 xmlns:xlink="http://www.w3.org/1999/xlink">
 <defs>
  <style type="text/css">
   <![CDATA[
    .str1 {stroke:#FEFEFE;stroke-width:13.32;stroke-miterlimit:22.9256}
    .str0 {stroke:#008DD2;stroke-width:13.32;stroke-miterlimit:22.9256}
    .fil1 {fill:none}
    .fil0 {fill:#2B2A29}
    .fil2 {fill:#008DD2}
   ]]>
  </style>
 </defs>
 <g id="Layer_x0020_1">
  <metadata id="CorelCorpID_0Corel-Layer"/>
  <g id="_2933343138736">
   <path class="fil0" d="M2230.87 1773.85c237.9,-193.52 120.65,-589.86 356.09,-936.08l-0.03 0.05c8.46,-13.78 4.22,-6.89 12.69,-20.67 -250.14,430.34 -97.72,700.79 -336.07,995.53l-32.68 -38.83z"/>
  </g>
  <path class="fil1" d="M2247.21 1793.26c229.26,-192.99 128.6,-724.01 339.96,-955.3l12.44 -20.82"/>
  <g id="_2933343144688">
   <path class="fil0" d="M1894.19 1864.17c-365.88,-205.83 -371.42,-138.34 -710.63,-428.62 -113.66,-97.26 -183.33,-122.47 -327.87,-151.23 147.4,26.06 216.39,49.86 334.15,145.55 337.8,274.48 344.86,221.12 730.58,390.84l-26.23 43.46z"/>
  </g>
  <path class="fil1" d="M1907.31 1842.44c-280.81,-169.51 -483.3,-147.35 -720.61,-409.73 -64.2,-70.99 -237.42,-143.09 -331.01,-148.39"/>
  <g id="_2933343146352">
   <path class="fil0" d="M1976.74 2063.67c-130.18,19.03 -174.86,190.06 -416.03,237.66 -219.33,43.31 -185.55,27.85 -406.68,119.58 215.18,-96.64 189.35,-82.13 403.79,-132.9 226.69,-53.67 233.27,-187.54 406.73,-273.61l12.19 49.27z"/>
  </g>
  <path class="fil1" d="M1970.64 2039.03c-150.71,37.33 -181.85,255.64 -526.9,269.74 -30.08,1.23 -254.88,91.53 -289.72,112.13"/>
  <g id="_2933343147344">
   <path class="fil0" d="M2160.52 2097.79c-13.8,207.92 269.49,338.68 262.49,828.37 -7.17,-501.38 -246.44,-515.13 -313.25,-828.37l50.76 0z"/>
  </g>
  <path class="fil1" d="M2135.14 2097.79c0,203.16 287.87,357.66 287.87,785.73 0,14.22 0,28.42 0,42.63"/>
  <g id="_2933343149264">
   <path class="fil0" d="M2373.97 1937.36c461.37,2.36 333.07,3.16 777.09,-80.94 36.44,-6.9 63.92,-2.25 106.21,-11.26 -81.43,19.78 -346,83.56 -349.16,84.27 -140.59,31.66 -381.52,42.37 -530.03,58.53l-4.1 -50.6z"/>
  </g>
  <path class="fil1" d="M2376.02 1962.66c381.47,-30.94 355.72,22.91 775.49,-104.74 19.2,-5.84 82.87,-2.85 105.76,-12.76"/>
  <path class="fil2 str0" d="M2111.33 1721.12c9.27,0 16.89,22.5 25.95,23.11 9.05,0.61 23.74,-37.46 32.55,-36.27 8.81,1.19 8.35,43.75 16.87,45.48 8.52,1.74 31.41,-46.98 39.62,-44.72 8.2,2.26 2.8,42.45 10.64,45.21 7.85,2.76 28.34,-23.67 35.79,-20.44 7.45,3.24 -4.13,44.13 2.9,47.82 7.03,3.68 30.88,-22.61 37.45,-18.51 6.57,4.1 4.03,22.14 10.1,26.63 6.07,4.5 17.52,2.09 23.06,6.95 5.54,4.86 0.27,21.07 5.24,26.28 4.97,5.21 35.43,-13.64 39.8,-8.12 4.37,5.52 -29.76,41.36 -26.03,47.18 3.73,5.82 31.19,-3.87 34.24,2.2 3.06,6.08 -14.26,21.33 -11.92,27.64 2.34,6.31 46.84,-5.25 48.44,1.27 1.6,6.52 -48.55,28.51 -47.73,35.22 0.81,6.71 34.67,8.29 34.67,15.16 0,6.86 -18.77,14.95 -19.58,21.66 -0.82,6.71 30.28,13.5 28.68,20.02 -1.6,6.52 -43.75,7.73 -46.09,14.04 -2.34,6.31 26.75,21.02 23.69,27.09 -3.05,6.08 -40.2,-2.15 -43.92,3.66 -3.73,5.82 31.58,30.66 27.22,36.18 -4.37,5.52 -31.93,1.71 -36.9,6.91 -4.97,5.21 2.23,17.98 -3.31,22.84 -5.54,4.87 -37.66,-17.58 -43.73,-13.08 -6.07,4.5 20,43.35 13.43,47.46 -6.57,4.1 -42.45,-28.96 -49.48,-25.28 -7.03,3.68 2.09,35.15 -5.37,38.39 -7.45,3.24 -25.67,-16.81 -33.51,-14.05 -7.85,2.76 0.28,38.65 -7.92,40.91 -8.2,2.26 -26.79,-13.52 -35.31,-11.78 -8.52,1.74 -10.72,19.54 -19.52,20.72 -8.8,1.19 -23.81,-14.6 -32.86,-13.99 -9.05,0.61 -17.62,5.79 -26.89,5.79 -9.27,0 -17.43,-22.07 -26.49,-22.68 -9.05,-0.61 -18.09,37.97 -26.9,36.78 -8.81,-1.19 -17.12,-29.68 -25.64,-31.41 -8.52,-1.74 -19.08,8.83 -27.28,6.57 -8.2,-2.26 -8.21,-30.58 -16.05,-33.34 -7.85,-2.76 -25.81,23.73 -33.27,20.49 -7.45,-3.24 -6.91,-24.5 -13.94,-28.18 -7.03,-3.68 -25.08,12.08 -31.65,7.97 -6.57,-4.1 7.25,-37.34 1.19,-41.83 -6.07,-4.5 -28.19,11.91 -33.73,7.04 -5.54,-4.87 2.88,-23.03 -2.09,-28.24 -4.97,-5.21 -22.06,0.79 -26.43,-4.74 -4.36,-5.52 15.97,-26.74 12.24,-32.55 -3.73,-5.82 -34.81,4.16 -37.86,-1.91 -3.05,-6.08 24.28,-22.83 21.94,-29.14 -2.34,-6.31 -49.83,-4.33 -51.43,-10.85 -1.59,-6.53 31.11,-13.77 30.29,-20.47 -0.81,-6.71 -34.47,-18.4 -34.47,-25.26 0,-6.86 38.5,-4.78 39.31,-11.48 0.82,-6.71 -21.07,-18.44 -19.47,-24.96 1.6,-6.52 17.3,-6.63 19.64,-12.94 2.34,-6.31 -12.55,-24.37 -9.49,-30.44 3.05,-6.08 34.68,9.19 38.4,3.37 3.73,-5.82 -24.21,-42.15 -19.84,-47.68 4.37,-5.52 34.9,20.19 39.87,14.99 4.97,-5.21 -10.41,-38.02 -4.87,-42.88 5.54,-4.87 30.74,21.99 36.8,17.49 6.07,-4.5 -4.65,-40.09 1.92,-44.2 6.57,-4.1 30.71,30.87 37.74,27.18 7.03,-3.68 0.8,-34.88 8.25,-38.12 7.45,-3.24 17.87,3.07 25.72,0.31 7.85,-2.76 11.62,-41.48 19.82,-43.74 8.2,-2.26 22.72,45.66 31.24,43.92 8.52,-1.74 13.27,-27.17 22.07,-28.34 8.81,-1.19 17.77,4.5 26.81,3.9 9.05,-0.61 18.15,-4.22 27.4,-4.22z"/>
  <g id="_2933343151536">
   <path class="fil2 str0" d="M1559.4 2767.53c-472.66,95.01 -756.86,284.51 -1145.06,534.48 -138.3,89.05 -161.87,11.96 -167.91,-185.49 -10.68,-349.37 452.81,-950.36 772.44,-1062.83 2.42,-0.85 27.87,-9.69 53.87,-19.98 -64.85,30.86 -165.97,78.34 -204.01,109.48 -331.77,271.61 -690,712.9 -530.08,1165.1 18.26,-7.35 53.68,-28.1 59.99,-31.81 400.28,-235.89 681.06,-420.94 1160.75,-508.95zm-486.65 -733.81c27.56,-10.92 55.74,-23.48 57.78,-29.93 -0.79,2.64 -24.52,14.1 -57.78,29.93z"/>
  </g>
  <path class="fil1" d="M1559.4 2767.53c-140.89,-2.38 -478.7,170 -652.63,218.89 -123.89,34.82 -564.96,366.49 -579.6,339.74 -161.91,-295.77 52.14,-542.67 56.73,-599.76 8.75,-108.69 277.67,-430.14 372.64,-492.99 52.19,-34.54 162.58,-154.46 239.86,-170.88 5.08,-1.08 132.13,-46.13 134.12,-58.75"/>
  <g id="_2933343152144">
   <path class="fil2 str0" d="M1712.15 2332.79c-135.46,116.02 -170.21,396.5 -16.81,526.49 264.34,224.01 300.78,247.06 514.53,550.27 100.24,142.21 139.94,218.43 284.48,296.44 5.36,2.89 6.34,5.92 8.2,11.01 -0.56,-1.92 -0.29,-1.34 -1.05,-2.85 137.68,113.87 347.18,-94.56 370.86,-243.77 25.27,-159.22 12.11,-225.61 54.73,-423.46 61.43,-285.14 132.87,-841.47 -228.24,-959.43 -41.39,-13.52 -174.78,-62.43 -217.07,-77.82 42.54,14.87 175.94,61.89 217.67,74.93 366.84,114.58 303.82,676.65 247.62,966.9 -39.71,205.06 -22.28,256.48 -43.56,422.4 -40.25,313.91 -379.29,359.14 -429.21,258.51 -91.86,-40.28 -148.36,-122.28 -207.61,-203.08 -284.14,-387.54 -229.04,-360.53 -576,-663.52 -154.14,-134.61 -117.6,-416.87 21.47,-533.01z"/>
  </g>
  <path class="fil1" d="M1712.15 2332.79c-115.59,80.23 -186.87,409.74 -19.14,529.75 99.72,71.35 136.8,158.64 278.14,237.86 82.67,46.34 358.65,587.44 515.49,619.89 5.57,26.92 203.42,81.88 284.51,-36.76 99.25,-145.22 121.86,-105.03 121.86,-347.63 0,-211.98 88.12,-337.61 88.12,-644.73 0,-210.25 -31.71,-553.3 -282,-605.12 -16.46,-3.41 -207.54,-73.77 -217.37,-76.37"/>
  <g id="_2933343154928">
   <path class="fil2 str0" d="M3022.26 2373.91c417.04,-157.89 796.06,-245.57 1164.7,27.46 0,0 12.55,9.31 18.61,10.3 20.44,-63.12 -208.55,-496.59 -251.4,-543.89 -214.15,-236.35 -511.21,-395.03 -842.63,-342.38 -31.79,5.06 -53.84,10.86 -77.52,31.89 23.39,-21.52 45.47,-27.74 77.28,-33.37 332.91,-58.99 634.75,95.52 858.04,326.15 158.39,163.61 398.72,751.23 178.64,555.5 -301.39,-268.04 -784.63,-153.86 -1125.7,-31.66zm1184.31 37.84l0.55 -0.05c-0.17,-0.04 -0.36,-0.01 -0.55,0.05z"/>
  </g>
  <path class="fil1" d="M3022.26 2373.91c147.47,-54.94 226.05,-92.77 383.88,-111.12 262.9,-30.58 558.25,-61.14 751.99,132.61 115,114.99 56.6,-111.22 -6.88,-187.5 -1.03,-1.23 -71.68,-248.11 -189.51,-348.98 -104.44,-89.41 -191.9,-207.15 -326.48,-262.02 -97.57,-39.77 -519.73,-128.16 -601.25,-39.62"/>
  <g id="_2933343158160">
   <path class="fil2 str0" d="M1577.02 2168.28c-531.62,-208.65 -841.54,-517.86 -1302.75,-666 -177.61,-57.05 -371.6,-173.67 -202.93,-385.06 157.31,-197.15 1394.56,-387.1 1622.53,-53.88l33.27 45.04 49.63 72.91 -50.59 -72.2 -34.03 -44.83c-233.13,-331.04 -1458.67,-111.28 -1587.75,77.64 -133,194.66 6.45,274.59 178.44,335.44 470.62,166.48 756.98,471.54 1294.18,690.95z"/>
  </g>
  <path class="fil1" d="M1577.02 2168.28c-216.87,-83.24 -275.73,-103.03 -471.51,-221.74 -132.33,-80.24 -634.49,-423.23 -747.12,-435.75 -70.47,-7.84 -320.6,-105.45 -320.6,-182.63 0,-301.19 183.69,-267.59 428.87,-368.61 61.73,-25.43 785.01,-96.62 866.64,-61.78 56.78,24.25 284.85,26.83 359.71,166.01 1.85,3.44 59.97,77.25 83.76,117.49"/>
  <g id="_2933343091120">
   <path class="fil2 str0" d="M2681.51 1798.17c121.9,-129.76 160.87,-259.54 193.43,-295.04 0.54,-0.59 0.93,-0.67 1.65,-0.84 211.35,-406.89 440.24,-922.46 400.86,-1393.99 -253.7,-125.97 -199.87,-109.51 -521.61,73.38 -302.69,172.07 -640.62,384.35 -769.94,737.53 -8.86,24.19 -7.29,21.67 -9.39,44.71 1.78,-23.11 0.24,-20.56 8.77,-44.94 140.79,-402.3 571.45,-651.09 914.3,-850.16 154.68,-89.82 425.36,-102.23 428.66,97.44 6.74,406.7 -254.4,994.71 -451.05,1341.3l2.01 -1.35c-78.68,148.75 -77.11,167.23 -197.7,291.97z"/>
  </g>
  <path class="fil1" d="M2681.51 1798.17c112.71,-101.98 130.7,-176.19 195.38,-293.25 11.68,-1.35 296.3,-593.46 297.6,-654.14 0.11,-4.96 123.9,-365.91 118.01,-515.48 -3.28,-83.35 27.15,-132.21 4.87,-239.86 -43.41,-8.97 -158.07,-166.9 -391.1,-16.28 -228.29,147.55 -353.82,181.84 -596.9,383.88 -73.47,61.06 -340.58,411 -332.86,500.88"/>
  <g id="_2933343091184">
   <path class="fil2 str0" d="M2060.96 689.4c-219.18,-177.23 -372.19,-372.45 -514.63,-613.18 -140.86,-54.54 -153.72,-41.93 -302.81,141.41 -160.95,197.92 -241.04,464.23 -71.86,687.55l-14.9 -11.51c-235.24,-228.28 -25.76,-656.22 190.92,-834.26 69.47,-57.08 191.81,-75.53 227.96,-8.51 108.55,201.31 320.66,437.04 492.71,588.3 13.87,2.04 23.45,14.93 21.42,28.8 -2.04,13.87 -14.93,23.45 -28.8,21.42z"/>
  </g>
  <path class="fil1" d="M2064.65 664.3c-63.41,-9.33 -489.36,-522.41 -506.26,-604.11 -49.24,-10.19 -91.85,-106.86 -255.48,65.63 -202.34,213.31 -325.33,468.37 -156.28,749.98 3.8,6.33 19.93,27.37 25.01,29.38"/>
  <g id="_2933343093584">
   <path class="fil2 str1" d="M2294.7 1931.03c58.59,-181 175.22,-254.78 334.23,-351.44 -102.38,72.69 -296.92,208.54 -265.99,351.44 0,18.84 -15.27,34.12 -34.11,34.12 -18.84,0 -34.12,-15.27 -34.12,-34.12z"/>
  </g>
  <path class="fil1" d="M2328.82 1931.03c0,-187.04 267.2,-316.98 273.48,-327.75 5.16,-8.83 18.07,-18.54 26.63,-23.69"/>
  <g id="_2933343093712">
   <path class="fil2 str1" d="M1890.47 1878.62c-178.68,-94.59 -302.77,-311.4 -354.51,-501.56 40.99,124.93 226.65,454.64 364.53,440.78 16.79,2.76 28.15,18.62 25.39,35.4 -2.77,16.79 -18.62,28.15 -35.41,25.39z"/>
  </g>
  <path class="fil1" d="M1895.48 1848.23c-95.53,-15.75 -274.1,-242.11 -314.56,-341.83 -27.69,-68.27 -19.54,-44.98 -44.96,-129.33"/>
  <g id="_2933343096208">
   <path class="fil2 str1" d="M2039.4 1744.93c222.18,-152.54 -66.17,-617.26 -137.24,-792.21 120,261.44 364.18,541.14 194.87,836.33 -14.72,13.75 -39.56,15.01 -55.48,2.83 -15.91,-12.18 -16.87,-33.2 -2.15,-46.95z"/>
  </g>
  <path class="fil1" d="M2068.22 1766.99c110.16,-102.74 62.18,-488.06 -65.67,-604.5 -54.36,-49.51 -75.89,-170.25 -100.39,-209.77"/>
  <g id="_2933343097488">
   <path class="fil2 str1" d="M2170.55 1793.98c99.03,-173.82 249.7,-663.15 252.79,-856.12 4.74,296.06 -129.84,577.96 -195.88,859.38 -0.89,15.72 -14.37,27.73 -30.09,26.83 -15.71,-0.9 -27.72,-14.38 -26.83,-30.09z"/>
  </g>
  <path class="fil1" d="M2199.01 1795.61c0.81,-14.08 65.11,-93.99 72.3,-196.82 6.89,-98.55 122.2,-327.94 128.66,-462.7 1.28,-26.71 23.37,-104.82 23.37,-169.66 0,-9.52 0,-19.04 0,-28.56"/>
  <g id="_2933343097424">
   <path class="fil2 str1" d="M1897.19 2058.21c-129.38,-50.78 -235.17,-107.09 -237.94,-254.5 11.6,127.54 109.55,199.87 237.94,203.74 14.02,0 25.38,11.36 25.38,25.38 0,14.02 -11.36,25.38 -25.38,25.38z"/>
  </g>
  <path class="fil1" d="M1897.19 2032.83c-55.28,0 -195.69,-72.96 -214.44,-138.06 -11.77,-40.88 -23.5,-23.76 -23.5,-91.06"/>
  <g id="_2933343100176">
   <path class="fil2 str1" d="M2070.79 2103.64c16.07,-69.38 50.99,-70.97 65.53,-185.86 0.76,46.72 -29.59,170.6 -16.72,175.67 3.84,9.88 -3.97,20.16 -17.45,22.98 -13.48,2.82 -27.52,-2.9 -31.36,-12.78z"/>
  </g>
  <path class="fil1" d="M2095.2 2098.54c-11.48,-29.58 41.57,-68.42 38.19,-131.26 -0.21,-4.02 2.94,-36.3 2.94,-49.5"/>
  <g id="_2933343100656">
   <path class="fil0" d="M2458.77 1672.44c0.68,-1.53 113.68,-230.47 119.08,-234.83 -6.44,6.49 -7.36,6.53 -11.06,15.08 7.67,-21.91 31.65,-33.46 53.56,-25.79 21.54,7.55 33.07,30.87 26.15,52.47 -1.97,39.48 -85.82,176.93 -103.84,198.46 -1.49,23.17 -21.48,40.74 -44.64,39.25 -23.17,-1.49 -40.74,-21.48 -39.25,-44.64zm175.1 -172.6l-2.9 2.92c1.03,-0.99 2,-1.97 2.9,-2.92z"/>
  </g>
  <path class="fil1" d="M2500.71 1675.14c0.75,-11.6 105.26,-168.75 102.81,-199.75 -0.6,-7.58 0.72,-2.4 2.94,-8.81"/>
  <g id="_2933343104912">
   <path class="fil0" d="M2335.24 1221.99c10.6,-83.71 17.62,-142.53 17.62,-226.19 0,-23.21 18.82,-42.03 42.03,-42.03 23.21,0 42.03,18.82 42.03,42.03 0,82.45 -6.3,143.6 -17.62,226.19 0,23.21 -18.82,42.03 -42.03,42.03 -23.21,0 -42.03,-18.82 -42.03,-42.03z"/>
  </g>
  <path class="fil1" d="M2377.27 1221.99c0,-33.79 17.62,-90.95 17.62,-162.31 0,-21.3 0,-42.59 0,-63.88"/>
  <g id="_2933343105008">
   <path class="fil0" d="M1984.74 1230.89c-22.2,-62.58 -56.03,-148.14 -21.61,-212.25 13.86,-18.62 40.19,-22.48 58.81,-8.61 17.41,12.96 21.91,36.82 11.09,55.09 -2.16,42.76 14.97,92.8 28.79,132.21 9.27,21.29 -0.47,46.06 -21.76,55.32 -21.29,9.27 -46.06,-0.47 -55.32,-21.76z"/>
  </g>
  <path class="fil1" d="M2023.28 1214.11c-13.45,-30.91 -46.62,-143.2 -26.44,-170.37"/>
  <g id="_2933343104080">
   <path class="fil0" d="M1610.58 1578.5c-82.03,-18.46 -112.28,-169.92 -124.22,-236.93 -5.78,-22.48 7.75,-45.4 30.24,-51.18 22.48,-5.78 45.4,7.75 51.18,30.24 10.35,55.94 23.15,132.68 62.59,176.89 17.36,6.7 28.74,24.45 26.61,43.82 -2.54,23.07 -23.31,39.71 -46.39,37.17z"/>
  </g>
  <path class="fil1" d="M1615.19 1536.72c-28.02,-3 -74.76,-121.12 -79.06,-150.06 -2.11,-14.19 -5.9,-43.24 -9.07,-55.56"/>
  <g id="_2933343108944">
   <path class="fil0" d="M1748.98 2017.48c-56.48,-47.88 -155.26,-144.03 -155.26,-228.46 0,-23.21 18.82,-42.03 42.03,-42.03 23.21,0 42.03,18.82 42.03,42.03 0,0.01 0,8.81 0,8.81l0.11 -0.2c15.15,46.36 76.37,112.93 109,144.81 20.72,10.47 29.03,35.76 18.56,56.47 -10.47,20.72 -35.76,29.03 -56.47,18.56z"/>
  </g>
  <path class="fil1" d="M1767.94 1979.96c-22.86,-11.55 -132.19,-136.46 -132.19,-182.13 0,-2.94 0,-5.88 0,-8.81"/>
  <g id="_2933343108688">
   <path class="fil0" d="M2075.96 1971.06c15.71,-52.99 15.19,-61.36 5.03,-115.6 -5.72,-22.5 7.89,-45.38 30.38,-51.09 22.5,-5.72 45.38,7.88 51.09,30.38 14.44,77.46 14.33,90.86 -8.09,166.58 -8.36,21.66 -32.69,32.43 -54.34,24.07 -21.66,-8.36 -32.43,-32.69 -24.07,-54.34z"/>
  </g>
  <path class="fil1" d="M2115.17 1986.2c18.09,-46.86 18.82,-92.86 6.56,-141.09"/>
 </g>
</svg>
